<svg xmlns="http://www.w3.org/2000/svg" width="68.508" height="48.23" viewBox="0 0 68.508 48.23">
  <g id="Componente_6_1" data-name="Componente 6 – 1" transform="translate(0.522 0.634)">
    <path id="Tracciato_59" data-name="Tracciato 59" d="M525.629,450.34c22.029-38.2,49.217,0,49.217,0" transform="translate(-516.464 -403.823)" fill="none" stroke="#000" stroke-width="1"/>
    <path id="Tracciato_60" data-name="Tracciato 60" d="M530.927,407c-21.221,14.738-12.824,40-12.824,40" transform="translate(-516.464 -403.823)" fill="none" stroke="#000" stroke-width="1"/>
    <path id="Tracciato_61" data-name="Tracciato 61" d="M518.091,446.894c1.579,3.037,1.723,2.959,2.915,3.6,1.2.7,3.167.383,4.572,0,.1-.153.136-.223.136-.223" transform="translate(-516.464 -403.823)" fill="none" stroke="#000" stroke-width="1"/>
    <path id="Tracciato_62" data-name="Tracciato 62" d="M516.464,407c21.221,14.674,12.824,39.825,12.824,39.825" transform="translate(-463.464 -403.823)" fill="none" stroke="#000" stroke-width="1"/>
    <path id="Tracciato_63" data-name="Tracciato 63" d="M525.714,446.894c-1.579,3.037-1.723,2.959-2.915,3.6-1.2.7-3.167.383-4.572,0-.1-.153-.136-.223-.136-.223" transform="translate(-459.878 -403.998)" fill="none" stroke="#000" stroke-width="1"/>
    <path id="Tracciato_64" data-name="Tracciato 64" d="M530.328,407.391a5.7,5.7,0,0,1,.844-.531c14.963-5.6,30.681-2.083,36.828-.3a14.569,14.569,0,0,1,1.662.542" transform="translate(-516.464 -403.823)" fill="none" stroke="#000" stroke-width="1"/>
    <line id="Linea_403" data-name="Linea 403" x2="4" transform="translate(18.231 13.043)" fill="none" stroke="#000" stroke-width="1"/>
    <line id="Linea_404" data-name="Linea 404" y1="4" transform="translate(22.231 13.043)" fill="none" stroke="#000" stroke-linecap="round" stroke-width="1"/>
    <line id="Linea_405" data-name="Linea 405" x1="4" transform="translate(22.231 17.043)" fill="none" stroke="#000" stroke-linecap="round" stroke-width="1"/>
    <line id="Linea_406" data-name="Linea 406" y1="4" transform="translate(26.231 17.043)" fill="none" stroke="#000" stroke-width="1"/>
    <line id="Linea_407" data-name="Linea 407" x2="4" transform="translate(22.231 21.043)" fill="none" stroke="#000" stroke-linecap="round" stroke-width="1"/>
    <line id="Linea_408" data-name="Linea 408" y2="5" transform="translate(22.231 21.043)" fill="none" stroke="#000" stroke-linecap="round" stroke-width="1"/>
    <line id="Linea_409" data-name="Linea 409" x2="4" transform="translate(18.231 26.043)" fill="none" stroke="#000" stroke-width="1"/>
    <line id="Linea_410" data-name="Linea 410" y2="5" transform="translate(18.231 21.043)" fill="none" stroke="#000" stroke-linecap="round" stroke-width="1"/>
    <line id="Linea_411" data-name="Linea 411" y2="4" transform="translate(18.231 13.043)" fill="none" stroke="#000" stroke-linecap="round" stroke-width="1"/>
    <line id="Linea_412" data-name="Linea 412" x2="4" transform="translate(14.231 17.043)" fill="none" stroke="#000" stroke-linecap="round" stroke-width="1"/>
    <line id="Linea_413" data-name="Linea 413" y1="4" transform="translate(14.231 17.043)" fill="none" stroke="#000" stroke-width="1"/>
    <line id="Linea_414" data-name="Linea 414" x1="4" transform="translate(14.231 21.043)" fill="none" stroke="#000" stroke-linecap="round" stroke-width="1"/>
    <line id="Linea_415" data-name="Linea 415" y1="4" transform="translate(18.231 17.043)" fill="none" stroke="#000" stroke-width="1"/>
    <line id="Linea_416" data-name="Linea 416" y1="4" transform="translate(17.231 17.043)" fill="none" stroke="#000" stroke-width="1"/>
    <line id="Linea_417" data-name="Linea 417" y1="4" transform="translate(16.231 17.043)" fill="none" stroke="#000" stroke-width="1"/>
    <line id="Linea_418" data-name="Linea 418" y1="4" transform="translate(15.231 17.043)" fill="none" stroke="#000" stroke-width="1"/>
    <line id="Linea_419" data-name="Linea 419" y1="4" transform="translate(22.231 17.043)" fill="none" stroke="#000" stroke-width="1"/>
    <line id="Linea_420" data-name="Linea 420" y1="4" transform="translate(21.231 17.043)" fill="none" stroke="#000" stroke-width="1"/>
    <line id="Linea_421" data-name="Linea 421" y1="4" transform="translate(20.231 17.043)" fill="none" stroke="#000" stroke-width="1"/>
    <line id="Linea_422" data-name="Linea 422" y1="4" transform="translate(19.231 17.043)" fill="none" stroke="#000" stroke-width="1"/>
    <line id="Linea_423" data-name="Linea 423" y1="4" transform="translate(25.231 17.043)" fill="none" stroke="#000" stroke-width="1"/>
    <line id="Linea_424" data-name="Linea 424" y1="4" transform="translate(24.231 17.043)" fill="none" stroke="#000" stroke-width="1"/>
    <line id="Linea_425" data-name="Linea 425" y1="4" transform="translate(23.231 17.043)" fill="none" stroke="#000" stroke-width="1"/>
    <line id="Linea_426" data-name="Linea 426" y1="4" transform="translate(22.231 17.043)" fill="none" stroke="#000" stroke-width="1"/>
    <line id="Linea_427" data-name="Linea 427" y1="4" transform="translate(22.231 21.043)" fill="none" stroke="#000" stroke-width="1"/>
    <line id="Linea_428" data-name="Linea 428" y1="4" transform="translate(21.231 21.043)" fill="none" stroke="#000" stroke-width="1"/>
    <line id="Linea_429" data-name="Linea 429" y1="4" transform="translate(20.231 21.043)" fill="none" stroke="#000" stroke-width="1"/>
    <line id="Linea_430" data-name="Linea 430" y1="4" transform="translate(19.231 21.043)" fill="none" stroke="#000" stroke-width="1"/>
    <line id="Linea_431" data-name="Linea 431" y1="4" transform="translate(22.231 22.043)" fill="none" stroke="#000" stroke-width="1"/>
    <line id="Linea_432" data-name="Linea 432" y1="4" transform="translate(21.231 22.043)" fill="none" stroke="#000" stroke-width="1"/>
    <line id="Linea_433" data-name="Linea 433" y1="4" transform="translate(20.231 22.043)" fill="none" stroke="#000" stroke-width="1"/>
    <line id="Linea_434" data-name="Linea 434" y1="4" transform="translate(19.231 22.043)" fill="none" stroke="#000" stroke-width="1"/>
    <line id="Linea_435" data-name="Linea 435" y1="4" transform="translate(22.231 13.043)" fill="none" stroke="#000" stroke-width="1"/>
    <line id="Linea_436" data-name="Linea 436" y1="4" transform="translate(21.231 13.043)" fill="none" stroke="#000" stroke-width="1"/>
    <line id="Linea_437" data-name="Linea 437" y1="4" transform="translate(20.231 13.043)" fill="none" stroke="#000" stroke-width="1"/>
    <line id="Linea_438" data-name="Linea 438" y1="4" transform="translate(19.231 13.043)" fill="none" stroke="#000" stroke-width="1"/>
    <path id="Tracciato_65" data-name="Tracciato 65" d="M525.629,450.34c22.029-38.2,49.217,0,49.217,0" transform="translate(-516.464 -403.823)" fill="none" stroke="#000" stroke-width="1"/>
    <path id="Tracciato_66" data-name="Tracciato 66" d="M530.927,407c-21.221,14.738-12.824,40-12.824,40" transform="translate(-516.464 -403.823)" fill="none" stroke="#000" stroke-width="1"/>
    <path id="Tracciato_67" data-name="Tracciato 67" d="M516.464,407c21.221,14.674,12.824,39.825,12.824,39.825" transform="translate(-463.464 -403.823)" fill="none" stroke="#000" stroke-width="1"/>
    <path id="Tracciato_68" data-name="Tracciato 68" d="M525.714,446.894c-1.579,3.037-1.723,2.959-2.915,3.6-1.2.7-3.167.383-4.572,0-.1-.153-.136-.223-.136-.223" transform="translate(-459.878 -403.998)" fill="none" stroke="#000" stroke-width="1"/>
    <path id="Tracciato_69" data-name="Tracciato 69" d="M530.328,407.391a5.7,5.7,0,0,1,.844-.531c14.963-5.6,30.681-2.083,36.828-.3a14.569,14.569,0,0,1,1.662.542" transform="translate(-516.464 -403.823)" fill="none" stroke="#000" stroke-width="1"/>
    <line id="Linea_439" data-name="Linea 439" x2="4" transform="translate(18.231 13.043)" fill="none" stroke="#000" stroke-width="1"/>
    <line id="Linea_440" data-name="Linea 440" y1="4" transform="translate(22.231 13.043)" fill="none" stroke="#000" stroke-linecap="round" stroke-width="1"/>
    <line id="Linea_441" data-name="Linea 441" x1="4" transform="translate(22.231 17.043)" fill="none" stroke="#000" stroke-linecap="round" stroke-width="1"/>
    <line id="Linea_442" data-name="Linea 442" y1="4" transform="translate(26.231 17.043)" fill="none" stroke="#000" stroke-width="1"/>
    <line id="Linea_443" data-name="Linea 443" x2="4" transform="translate(22.231 21.043)" fill="none" stroke="#000" stroke-linecap="round" stroke-width="1"/>
    <line id="Linea_444" data-name="Linea 444" y2="5" transform="translate(22.231 21.043)" fill="none" stroke="#000" stroke-linecap="round" stroke-width="1"/>
    <line id="Linea_445" data-name="Linea 445" x2="4" transform="translate(18.231 26.043)" fill="none" stroke="#000" stroke-width="1"/>
    <line id="Linea_446" data-name="Linea 446" y2="5" transform="translate(18.231 21.043)" fill="none" stroke="#000" stroke-linecap="round" stroke-width="1"/>
    <line id="Linea_447" data-name="Linea 447" y2="4" transform="translate(18.231 13.043)" fill="none" stroke="#000" stroke-linecap="round" stroke-width="1"/>
    <line id="Linea_448" data-name="Linea 448" x2="4" transform="translate(14.231 17.043)" fill="none" stroke="#000" stroke-linecap="round" stroke-width="1"/>
    <line id="Linea_449" data-name="Linea 449" y1="4" transform="translate(14.231 17.043)" fill="none" stroke="#000" stroke-width="1"/>
    <line id="Linea_450" data-name="Linea 450" x1="4" transform="translate(14.231 21.043)" fill="none" stroke="#000" stroke-linecap="round" stroke-width="1"/>
    <line id="Linea_451" data-name="Linea 451" y1="4" transform="translate(18.231 17.043)" fill="none" stroke="#000" stroke-width="1"/>
    <line id="Linea_452" data-name="Linea 452" y1="4" transform="translate(17.231 17.043)" fill="none" stroke="#000" stroke-width="1"/>
    <line id="Linea_453" data-name="Linea 453" y1="4" transform="translate(16.231 17.043)" fill="none" stroke="#000" stroke-width="1"/>
    <line id="Linea_454" data-name="Linea 454" y1="4" transform="translate(15.231 17.043)" fill="none" stroke="#000" stroke-width="1"/>
    <line id="Linea_455" data-name="Linea 455" y1="4" transform="translate(22.231 17.043)" fill="none" stroke="#000" stroke-width="1"/>
    <line id="Linea_456" data-name="Linea 456" y1="4" transform="translate(21.231 17.043)" fill="none" stroke="#000" stroke-width="1"/>
    <line id="Linea_457" data-name="Linea 457" y1="4" transform="translate(20.231 17.043)" fill="none" stroke="#000" stroke-width="1"/>
    <line id="Linea_458" data-name="Linea 458" y1="4" transform="translate(19.231 17.043)" fill="none" stroke="#000" stroke-width="1"/>
    <line id="Linea_459" data-name="Linea 459" y1="4" transform="translate(25.231 17.043)" fill="none" stroke="#000" stroke-width="1"/>
    <line id="Linea_460" data-name="Linea 460" y1="4" transform="translate(24.231 17.043)" fill="none" stroke="#000" stroke-width="1"/>
    <line id="Linea_461" data-name="Linea 461" y1="4" transform="translate(23.231 17.043)" fill="none" stroke="#000" stroke-width="1"/>
    <line id="Linea_462" data-name="Linea 462" y1="4" transform="translate(22.231 17.043)" fill="none" stroke="#000" stroke-width="1"/>
    <line id="Linea_463" data-name="Linea 463" y1="4" transform="translate(22.231 21.043)" fill="none" stroke="#000" stroke-width="1"/>
    <line id="Linea_464" data-name="Linea 464" y1="4" transform="translate(21.231 21.043)" fill="none" stroke="#000" stroke-width="1"/>
    <line id="Linea_465" data-name="Linea 465" y1="4" transform="translate(20.231 21.043)" fill="none" stroke="#000" stroke-width="1"/>
    <line id="Linea_466" data-name="Linea 466" y1="4" transform="translate(19.231 21.043)" fill="none" stroke="#000" stroke-width="1"/>
    <line id="Linea_467" data-name="Linea 467" y1="4" transform="translate(22.231 22.043)" fill="none" stroke="#000" stroke-width="1"/>
    <line id="Linea_468" data-name="Linea 468" y1="4" transform="translate(21.231 22.043)" fill="none" stroke="#000" stroke-width="1"/>
    <line id="Linea_469" data-name="Linea 469" y1="4" transform="translate(20.231 22.043)" fill="none" stroke="#000" stroke-width="1"/>
    <line id="Linea_470" data-name="Linea 470" y1="4" transform="translate(19.231 22.043)" fill="none" stroke="#000" stroke-width="1"/>
    <line id="Linea_471" data-name="Linea 471" y1="4" transform="translate(22.231 13.043)" fill="none" stroke="#000" stroke-width="1"/>
    <line id="Linea_472" data-name="Linea 472" y1="4" transform="translate(21.231 13.043)" fill="none" stroke="#000" stroke-width="1"/>
    <line id="Linea_473" data-name="Linea 473" y1="4" transform="translate(20.231 13.043)" fill="none" stroke="#000" stroke-width="1"/>
    <line id="Linea_474" data-name="Linea 474" y1="4" transform="translate(19.231 13.043)" fill="none" stroke="#000" stroke-width="1"/>
    <path id="Tracciato_70" data-name="Tracciato 70" d="M525.629,450.34c22.029-38.2,49.217,0,49.217,0" transform="translate(-516.464 -403.823)" fill="none" stroke="#000" stroke-width="1"/>
    <path id="Tracciato_71" data-name="Tracciato 71" d="M530.927,407c-21.221,14.738-12.824,40-12.824,40" transform="translate(-516.464 -403.823)" fill="none" stroke="#000" stroke-width="1"/>
    <path id="Tracciato_72" data-name="Tracciato 72" d="M516.464,407c21.221,14.674,12.824,39.825,12.824,39.825" transform="translate(-463.464 -403.823)" fill="none" stroke="#000" stroke-width="1"/>
    <path id="Tracciato_73" data-name="Tracciato 73" d="M525.714,446.894c-1.579,3.037-1.723,2.959-2.915,3.6-1.2.7-3.167.383-4.572,0-.1-.153-.136-.223-.136-.223" transform="translate(-459.878 -403.998)" fill="none" stroke="#000" stroke-width="1"/>
    <path id="Tracciato_74" data-name="Tracciato 74" d="M530.328,407.391a5.7,5.7,0,0,1,.844-.531c14.963-5.6,30.681-2.083,36.828-.3a14.569,14.569,0,0,1,1.662.542" transform="translate(-516.464 -403.823)" fill="none" stroke="#000" stroke-width="1"/>
    <g id="Ellisse_41" data-name="Ellisse 41" transform="translate(44.731 10.543)" stroke="#000" stroke-width="1">
      <circle cx="2.5" cy="2.5" r="2.5" stroke="none"/>
      <circle cx="2.5" cy="2.5" r="2" fill="none"/>
    </g>
    <g id="Ellisse_42" data-name="Ellisse 42" transform="translate(38.731 16.543)" stroke="#000" stroke-width="1">
      <circle cx="2.5" cy="2.5" r="2.5" stroke="none"/>
      <circle cx="2.5" cy="2.5" r="2" fill="none"/>
    </g>
    <g id="Ellisse_43" data-name="Ellisse 43" transform="translate(50.731 16.543)" stroke="#000" stroke-width="1">
      <circle cx="2.5" cy="2.5" r="2.5" stroke="none"/>
      <circle cx="2.5" cy="2.5" r="2" fill="none"/>
    </g>
    <g id="Ellisse_44" data-name="Ellisse 44" transform="translate(44.731 22.543)" stroke="#000" stroke-width="1">
      <circle cx="2.5" cy="2.5" r="2.5" stroke="none"/>
      <circle cx="2.5" cy="2.5" r="2" fill="none"/>
    </g>
    <line id="Linea_475" data-name="Linea 475" x2="4" transform="translate(18.231 13.043)" fill="none" stroke="#000" stroke-width="1"/>
    <line id="Linea_476" data-name="Linea 476" y1="4" transform="translate(22.231 13.043)" fill="none" stroke="#000" stroke-linecap="round" stroke-width="1"/>
    <line id="Linea_477" data-name="Linea 477" x1="4" transform="translate(22.231 17.043)" fill="none" stroke="#000" stroke-linecap="round" stroke-width="1"/>
    <line id="Linea_478" data-name="Linea 478" y1="4" transform="translate(26.231 17.043)" fill="none" stroke="#000" stroke-width="1"/>
    <line id="Linea_479" data-name="Linea 479" x2="4" transform="translate(22.231 21.043)" fill="none" stroke="#000" stroke-linecap="round" stroke-width="1"/>
    <line id="Linea_480" data-name="Linea 480" y2="5" transform="translate(22.231 21.043)" fill="none" stroke="#000" stroke-linecap="round" stroke-width="1"/>
    <line id="Linea_481" data-name="Linea 481" x2="4" transform="translate(18.231 26.043)" fill="none" stroke="#000" stroke-width="1"/>
    <line id="Linea_482" data-name="Linea 482" y2="5" transform="translate(18.231 21.043)" fill="none" stroke="#000" stroke-linecap="round" stroke-width="1"/>
    <line id="Linea_483" data-name="Linea 483" y2="4" transform="translate(18.231 13.043)" fill="none" stroke="#000" stroke-linecap="round" stroke-width="1"/>
    <line id="Linea_484" data-name="Linea 484" x2="4" transform="translate(14.231 17.043)" fill="none" stroke="#000" stroke-linecap="round" stroke-width="1"/>
    <line id="Linea_485" data-name="Linea 485" y1="4" transform="translate(14.231 17.043)" fill="none" stroke="#000" stroke-width="1"/>
    <line id="Linea_486" data-name="Linea 486" x1="4" transform="translate(14.231 21.043)" fill="none" stroke="#000" stroke-linecap="round" stroke-width="1"/>
    <line id="Linea_487" data-name="Linea 487" y1="4" transform="translate(18.231 17.043)" fill="none" stroke="#000" stroke-width="1"/>
    <line id="Linea_488" data-name="Linea 488" y1="4" transform="translate(17.231 17.043)" fill="none" stroke="#000" stroke-width="1"/>
    <line id="Linea_489" data-name="Linea 489" y1="4" transform="translate(16.231 17.043)" fill="none" stroke="#000" stroke-width="1"/>
    <line id="Linea_490" data-name="Linea 490" y1="4" transform="translate(15.231 17.043)" fill="none" stroke="#000" stroke-width="1"/>
    <line id="Linea_491" data-name="Linea 491" y1="4" transform="translate(22.231 17.043)" fill="none" stroke="#000" stroke-width="1"/>
    <line id="Linea_492" data-name="Linea 492" y1="4" transform="translate(21.231 17.043)" fill="none" stroke="#000" stroke-width="1"/>
    <line id="Linea_493" data-name="Linea 493" y1="4" transform="translate(20.231 17.043)" fill="none" stroke="#000" stroke-width="1"/>
    <line id="Linea_494" data-name="Linea 494" y1="4" transform="translate(19.231 17.043)" fill="none" stroke="#000" stroke-width="1"/>
    <line id="Linea_495" data-name="Linea 495" y1="4" transform="translate(25.231 17.043)" fill="none" stroke="#000" stroke-width="1"/>
    <line id="Linea_496" data-name="Linea 496" y1="4" transform="translate(24.231 17.043)" fill="none" stroke="#000" stroke-width="1"/>
    <line id="Linea_497" data-name="Linea 497" y1="4" transform="translate(23.231 17.043)" fill="none" stroke="#000" stroke-width="1"/>
    <line id="Linea_498" data-name="Linea 498" y1="4" transform="translate(22.231 17.043)" fill="none" stroke="#000" stroke-width="1"/>
    <line id="Linea_499" data-name="Linea 499" y1="4" transform="translate(22.231 21.043)" fill="none" stroke="#000" stroke-width="1"/>
    <line id="Linea_500" data-name="Linea 500" y1="4" transform="translate(21.231 21.043)" fill="none" stroke="#000" stroke-width="1"/>
    <line id="Linea_501" data-name="Linea 501" y1="4" transform="translate(20.231 21.043)" fill="none" stroke="#000" stroke-width="1"/>
    <line id="Linea_502" data-name="Linea 502" y1="4" transform="translate(19.231 21.043)" fill="none" stroke="#000" stroke-width="1"/>
    <line id="Linea_503" data-name="Linea 503" y1="4" transform="translate(22.231 22.043)" fill="none" stroke="#000" stroke-width="1"/>
    <line id="Linea_504" data-name="Linea 504" y1="4" transform="translate(21.231 22.043)" fill="none" stroke="#000" stroke-width="1"/>
    <line id="Linea_505" data-name="Linea 505" y1="4" transform="translate(20.231 22.043)" fill="none" stroke="#000" stroke-width="1"/>
    <line id="Linea_506" data-name="Linea 506" y1="4" transform="translate(19.231 22.043)" fill="none" stroke="#000" stroke-width="1"/>
    <line id="Linea_507" data-name="Linea 507" y1="4" transform="translate(22.231 13.043)" fill="none" stroke="#000" stroke-width="1"/>
    <line id="Linea_508" data-name="Linea 508" y1="4" transform="translate(21.231 13.043)" fill="none" stroke="#000" stroke-width="1"/>
    <line id="Linea_509" data-name="Linea 509" y1="4" transform="translate(20.231 13.043)" fill="none" stroke="#000" stroke-width="1"/>
    <line id="Linea_510" data-name="Linea 510" y1="4" transform="translate(19.231 13.043)" fill="none" stroke="#000" stroke-width="1"/>
  </g>
</svg>
