<svg id="Component_3_9" data-name="Component 3 – 9" xmlns="http://www.w3.org/2000/svg" width="328" height="318" viewBox="0 0 328 318">
  <g id="Path_94" data-name="Path 94" fill="#a444f8">
    <path d="M 164 313 C 153.19873046875 313 142.4059143066406 311.9453125 131.9212799072266 309.8652648925781 C 121.7070465087891 307.8388671875 111.6605453491211 304.8153991699219 102.0608673095703 300.8788757324219 C 92.63677215576172 297.0143127441406 83.54754638671875 292.2313232421875 75.04563903808594 286.6626281738281 C 66.62609100341797 281.1479187011719 58.70918273925781 274.8150939941406 51.51486206054688 267.8401489257812 C 44.32327270507812 260.8677673339844 37.79481887817383 253.1966400146484 32.11086273193359 245.0398254394531 C 26.37540817260742 236.8090515136719 21.44977188110352 228.0111846923828 17.47081756591797 218.8906402587891 C 13.41995429992676 209.6053161621094 10.30890941619873 199.8889617919922 8.224136352539062 190.0114593505859 C 6.08472728729248 179.8754119873047 5 169.4416351318359 5 159 C 5 148.5583648681641 6.08472728729248 138.1245880126953 8.224136352539062 127.9885482788086 C 10.30890941619873 118.1110458374023 13.41995429992676 108.3946838378906 17.47081756591797 99.10936737060547 C 21.44977188110352 89.98881530761719 26.37540817260742 81.19095611572266 32.11086273193359 72.96018218994141 C 37.79481887817383 64.80335998535156 44.32327270507812 57.13222885131836 51.51486206054688 50.15986251831055 C 58.70918273925781 43.18490982055664 66.62609100341797 36.85209274291992 75.04563903808594 31.33736419677734 C 83.54754638671875 25.7686824798584 92.63677215576172 20.98568153381348 102.0608673095703 17.12113571166992 C 111.6605453491211 13.18459129333496 121.7070465087891 10.16113662719727 131.9212799072266 8.134727478027344 C 142.4059143066406 6.054681777954102 153.19873046875 5 164 5 C 174.80126953125 5 185.5940856933594 6.054681777954102 196.0787200927734 8.134727478027344 C 206.2929534912109 10.16113662719727 216.3394470214844 13.18459129333496 225.9391784667969 17.12113571166992 C 235.3632202148438 20.98568153381348 244.4524536132812 25.7686824798584 252.9543609619141 31.33736419677734 C 261.3739624023438 36.85209274291992 269.2908325195312 43.18490982055664 276.4851379394531 50.15986251831055 C 283.6767578125 57.13222885131836 290.2051696777344 64.80335998535156 295.8891296386719 72.96018218994141 C 301.6246032714844 81.19095611572266 306.5502319335938 89.98881530761719 310.5292358398438 99.10936737060547 C 314.5800476074219 108.3946838378906 317.6911010742188 118.1110458374023 319.7759094238281 127.9885482788086 C 321.915283203125 138.1245880126953 323 148.5583648681641 323 159 C 323 169.4416351318359 321.915283203125 179.8754119873047 319.7759094238281 190.0114593505859 C 317.6911010742188 199.8889617919922 314.5800476074219 209.6053161621094 310.5292358398438 218.8906402587891 C 306.5502319335938 228.0111846923828 301.6246032714844 236.8090515136719 295.8891296386719 245.0398254394531 C 290.2051696777344 253.1966400146484 283.6767578125 260.8677673339844 276.4851379394531 267.8401489257812 C 269.2908325195312 274.8150939941406 261.3739624023438 281.1479187011719 252.9543609619141 286.6626281738281 C 244.4524536132812 292.2313232421875 235.3632202148438 297.0143127441406 225.9391784667969 300.8788757324219 C 216.3394470214844 304.8153991699219 206.2929534912109 307.8388671875 196.0787200927734 309.8652648925781 C 185.5940856933594 311.9453125 174.80126953125 313 164 313 Z" stroke="none"/>
    <path d="M 164 10 C 79.0841064453125 10 10 76.84109497070312 10 159 C 10 241.1589050292969 79.0841064453125 308 164 308 C 248.9158935546875 308 318 241.1589050292969 318 159 C 318 76.84109497070312 248.9158935546875 10 164 10 M 164 0 C 254.57470703125 0 328 71.18675231933594 328 159 C 328 246.8132476806641 254.57470703125 318 164 318 C 73.42529296875 318 0 246.8132476806641 0 159 C 0 71.18675231933594 73.42529296875 0 164 0 Z" stroke="none" fill="#a444f8"/>
  </g>
  <path id="Path_93" data-name="Path 93" d="M0,0,51.088,63.247" transform="translate(86.843 154.558)" fill="none" stroke="#f5f5f5" stroke-linecap="round" stroke-width="10"/>
  <path id="Path_96" data-name="Path 96" d="M103.364,0,0,118.409" transform="translate(137.931 99.397)" fill="none" stroke="#f5f5f5" stroke-linecap="round" stroke-width="10"/>
</svg>
