<svg id="Tavola_disegno_1" data-name="Tavola disegno 1" xmlns="http://www.w3.org/2000/svg" width="109.82" height="46.486" viewBox="0 0 109.82 46.486">
  <path id="Tracciato_1" data-name="Tracciato 1" d="M47.9,45.108c-18.211,0-36.422-.034-54.638.057a.287.287,0,0,1-.206-.088.3.3,0,0,1-.082-.211q.153-23.094,0-46.187,54.91.08,109.82,0h0q-.1,23.237,0,46.474C84.478,45.085,66.17,45.108,47.9,45.108Z" transform="translate(7.03 1.32)" fill="rgba(0,0,0,0)"/>
  <path id="Tracciato_2" data-name="Tracciato 2" d="M.11,40.723A28.9,28.9,0,0,0,19.837,38.9c.653-.3,1.982-.356,1.675-1.506-.267-1.023-1.249-.322-1.942-.333-1.7-.034-2.618-1.788-1.851-3.817a3.267,3.267,0,0,1,1.329-1.759c3.157-1.42,4.815-4.116,6.246-7.048a2.162,2.162,0,0,1,2.044-1.305c.994.052.948.983,1.107,1.725.187.868.483,1.788,1.618,1.506.977-.236,1.187-1.1,1.187-2.035,0-2.2-.062-4.4.04-6.594A4.72,4.72,0,0,1,34.1,13.708a2.962,2.962,0,0,1,3.407.575,3.855,3.855,0,0,1,1.136,3.639c-.08.822.125,1.667.926,1.886,1.005.282,1.516-.575,1.874-1.374.96-2.133.568-4.507,1.1-6.738.892-3.622,2.839-6.175,6.411-7.3,2.726-.845,4.475.535,4.475,3.409a7.372,7.372,0,0,0-.074.839c.165,1.2-1.181,3.007.687,3.449,1.584.374,2.641-1.15,3.356-2.553a43.051,43.051,0,0,1,4.134-7.135A5.913,5.913,0,0,1,65.885.083C68.991-.2,70.82,2.193,69.86,5.211c-.505,1.575-2.164,3.61-.676,4.7,1.738,1.276,3.021-1.23,4.429-2.167C76.254,5.987,78.98,4.9,82.1,6.119c1.97.765,3.083,1.96,1.232,4.024-.568.615-1.306,1.345-.863,2.254.534,1.1,1.7.621,2.561.615,3.231,0,6.246.333,7.95,3.651,1.488,2.875,1.039,4.6-1.7,6.221a20.72,20.72,0,0,1-2.022,1.006c-3.7,1.679-3.7,1.673-2.124,5.306,1.244,2.875.153,4.887-3.095,5.628a10.348,10.348,0,0,1-8.33-1.794A10.976,10.976,0,0,0,70.791,31a2.465,2.465,0,0,0-2.328.759c-.6.92.443,1.472.965,2.081.25.293.534.575.778.839,1.028,1.2,2.487,2.3,1.573,4.191-.965,2.006-2.805,2.081-4.639,1.84-3.668-.489-6.684-2.4-9.512-4.668-1.329-1.064-2.675-2.11-4.066-3.082a1.688,1.688,0,0,0-2.328.121c-.789.8-.312,1.512.108,2.3,1.817,3.421.755,5.145-3.078,5.295-2.686.1-4.611-1.391-6.644-2.788-.869-.592-1.874-1.644-2.959-.966s-.051,1.725,0,2.633c.165,2.3-1.238,2.806-2.873,2.116a10.741,10.741,0,0,0-8.751-.1c-2.141.88-3.254-.661-3.9-2.593-6.19,4.318-12.919,5.433-20.079,4.507C1.649,43.3.19,43.069.11,40.723Z" transform="translate(3.86 0.708)" fill="#00bf59"/>
  <path id="Tracciato_3" data-name="Tracciato 3" d="M59.481,45.287c-2.474.284-4.276,2.58-6.911,2.357C65.841,39.3,80.208,34.7,96.3,34.857c-1.112,1.351-2.374.9-3.442.962A78.373,78.373,0,0,0,60,44.781a2.925,2.925,0,0,0-.556.556Z" transform="translate(-18.421 -13.843)" fill="#262626"/>
  <path id="Tracciato_4" data-name="Tracciato 4" d="M86.52,47.656c4.348-1.523,11.592,1.184,13.816,5.176C96.144,50.014,91.958,47.184,86.52,47.656Z" transform="translate(-33.424 -19.25)" fill="#262626"/>
  <path id="Tracciato_5" data-name="Tracciato 5" d="M106.938,14.19c.717,3.336-2.98,9.519-6.338,10.681C103.552,21.8,105.359,18.06,106.938,14.19Z" transform="translate(-39.603 -5.205)" fill="#262626"/>
  <path id="Tracciato_6" data-name="Tracciato 6" d="M83.9,21.791A16.324,16.324,0,0,1,80.35,31.7,44.612,44.612,0,0,0,83.3,20.79C83.875,20.907,83.641,21.5,83.9,21.791Z" transform="translate(-30.855 -7.979)" fill="#262626"/>
  <path id="Tracciato_7" data-name="Tracciato 7" d="M61.138,33a6.709,6.709,0,0,1-1.268,8.946C61.2,38.788,62.116,36.008,61.138,33Z" transform="translate(-21.983 -13.158)" fill="#262626"/>
  <path id="Tracciato_8" data-name="Tracciato 8" d="M64.9,53.653c2.78.595,5.616,1.179,7.673,3.453-2.352-1.607-5.582-1.234-7.617-3.486Z" transform="translate(-24.126 -22.016)" fill="#262626"/>
  <path id="Tracciato_9" data-name="Tracciato 9" d="M86.24,21.05l-.606-1c0-.384-.156-1.145.4-.867S86.251,20.4,86.24,21.05Z" transform="translate(-33.163 -7.377)" fill="#262626"/>
  <path id="Tracciato_10" data-name="Tracciato 10" d="M86.24,21.05l-.606-1c0-.384-.156-1.145.4-.867S86.251,20.4,86.24,21.05Z" transform="translate(-33.163 -7.377)" fill="#262626"/>
</svg>
