<svg id="Tavola_disegno_1" data-name="Tavola disegno 1" xmlns="http://www.w3.org/2000/svg" width="576.869" height="244.182" viewBox="0 0 576.869 244.182">
  <path id="Path_1" data-name="Path 1" d="M281.494,242.561c-95.659,0-191.318-.181-287.007.3A1.507,1.507,0,0,1-6.6,242.4a1.548,1.548,0,0,1-.433-1.106q.8-121.308,0-242.615Q281.4-.9,569.839-1.32h0q-.535,122.061,0,244.122C473.645,242.44,377.48,242.561,281.494,242.561Z" transform="translate(7.03 1.32)" fill="rgba(0,0,0,0)"/>
  <path id="Path_2" data-name="Path 2" d="M.11,213.661a151.83,151.83,0,0,0,103.625-9.573c3.43-1.6,10.41-1.872,8.8-7.912-1.4-5.375-6.562-1.691-10.2-1.752-8.949-.181-13.751-9.392-9.724-20.052a17.159,17.159,0,0,1,6.98-9.241c16.585-7.459,25.295-21.623,32.811-37.024a11.355,11.355,0,0,1,10.738-6.855c5.22.272,4.981,5.164,5.817,9.06.984,4.56,2.535,9.392,8.5,7.912,5.131-1.238,6.234-5.8,6.234-10.691,0-11.536-.328-23.1.209-34.639.477-9.875,6.354-16.761,14.735-21.139,6.324-3.231,12.558-1.48,17.9,3.02,5.966,5.043,6.711,11.868,5.966,19.116-.418,4.318.656,8.758,4.862,9.905,5.28,1.48,7.964-3.02,9.843-7.218,5.041-11.2,2.983-23.676,5.787-35.394,4.683-19.026,14.914-32.434,33.677-38.323,14.318-4.439,23.505,2.809,23.505,17.908a38.723,38.723,0,0,0-.388,4.409c.865,6.281-6.2,15.794,3.609,18.12,8.322,1.963,13.87-6.04,17.629-13.408,6.533-12.9,12.767-25.941,21.715-37.477A31.06,31.06,0,0,1,345.615.182c16.316-1.51,25.921,11.083,20.88,26.938-2.655,8.275-11.365,18.965-3.55,24.673,9.128,6.7,15.869-6.463,23.266-11.385,13.87-9.211,28.188-14.918,44.564-8.516,10.351,4.017,16.2,10.3,6.473,21.139-2.983,3.231-6.861,7.067-4.534,11.838,2.8,5.768,8.949,3.262,13.453,3.231,16.972,0,32.812,1.752,41.76,19.177,7.815,15.1,5.459,24.159-8.948,32.676a108.842,108.842,0,0,1-10.619,5.285c-19.418,8.818-19.418,8.788-11.156,27.874,6.532,15.1.805,25.669-16.257,29.565-15.958,3.624-30.4-.453-43.759-9.422a57.657,57.657,0,0,0-25.8-10.66c-4.534-.483-9.873.393-12.23,3.986-3.162,4.832,2.327,7.731,5.071,10.932,1.313,1.54,2.8,3.02,4.087,4.409,5.4,6.312,13.065,12.08,8.262,22.015-5.071,10.54-14.735,10.932-24.37,9.664-19.269-2.567-35.108-12.593-49.963-24.522-6.98-5.587-14.049-11.083-21.357-16.187a8.869,8.869,0,0,0-12.23.634c-4.146,4.2-1.641,7.942.567,12.08,9.545,17.969,3.967,27.028-16.167,27.814-14.109.544-24.221-7.308-34.9-14.647-4.564-3.111-9.843-8.637-15.541-5.073s-.268,9.06,0,13.831c.865,12.08-6.5,14.737-15.093,11.113a56.422,56.422,0,0,0-45.966-.513c-11.245,4.621-17.092-3.473-20.462-13.62-32.513,22.68-67.86,28.538-105.474,23.676C8.194,227.22.528,225.982.11,213.661Z" transform="translate(20.743 3.969)" fill="rgba(38,38,38,0)" stroke="#00bf59" stroke-width="1.5"/>
  <path id="Path_3" data-name="Path 3" d="M88.872,89.663c-13,1.49-22.459,13.551-36.3,12.383,69.713-43.808,145.179-68.019,229.7-67.172-5.841,7.1-12.471,4.7-18.078,5.052C203.357,43.577,145.53,58.063,91.617,87.006A15.365,15.365,0,0,0,88.7,89.926Z" transform="translate(126.809 75.507)" fill="#262626"/>
  <path id="Path_4" data-name="Path 4" d="M86.52,49.487c22.839-8,60.893,6.221,72.575,27.19C137.074,61.87,115.083,47,86.52,49.487Z" transform="translate(192.385 99.728)" fill="#262626"/>
  <path id="Path_5" data-name="Path 5" d="M133.894,14.19c3.768,17.523-15.654,50-33.294,56.1C116.108,54.172,125.6,34.517,133.894,14.19Z" transform="translate(219.805 33.005)" fill="#262626"/>
  <path id="Path_6" data-name="Path 6" d="M99.012,26.047A85.746,85.746,0,0,1,80.35,78.12,234.346,234.346,0,0,0,95.829,20.79C98.866,21.4,97.64,24.5,99.012,26.047Z" transform="translate(179.637 46.506)" fill="#262626"/>
  <path id="Path_7" data-name="Path 7" d="M66.529,33C76.78,46.814,74.122,67.754,59.87,79.991,66.85,63.4,71.669,48.8,66.529,33Z" transform="translate(139.143 71.229)" fill="#262626"/>
  <path id="Path_8" data-name="Path 8" d="M64.9,53.8c14.6,3.125,29.5,6.192,40.3,18.136-12.354-8.44-29.322-6.484-40.011-18.312Z" transform="translate(149.28 112.391)" fill="#262626"/>
  <path id="Path_9" data-name="Path 9" d="M88.84,29.262,85.717,24c0-2.018-.8-6.024,2.063-4.562S88.9,25.841,88.84,29.262Z" transform="translate(189.777 43.99)" fill="#262626"/>
</svg>
