<svg xmlns="http://www.w3.org/2000/svg" width="329" height="379.12" viewBox="0 0 329 379.12">
  <g id="Group_12" data-name="Group 12" transform="translate(-64.5 -272.988)">
    <rect id="Rectangle_68" data-name="Rectangle 68" width="77" height="63" transform="translate(72 332.054)" fill="#ff6d4b"/>
    <rect id="Rectangle_69" data-name="Rectangle 69" width="84" height="66" transform="translate(232 578.054)" fill="#ff6d4b"/>
    <rect id="Rectangle_70" data-name="Rectangle 70" width="313" height="67" transform="translate(72 377.054)" fill="#ff6d4b"/>
    <rect id="Rectangle_71" data-name="Rectangle 71" width="82" height="68" transform="translate(153 578.054)" fill="#ff6d4b"/>
    <rect id="Rectangle_72" data-name="Rectangle 72" width="82" height="68" transform="translate(72 578.054)" fill="#ff6d4b"/>
    <rect id="Rectangle_73" data-name="Rectangle 73" width="82" height="68" transform="translate(303 578.054)" fill="#ff6d4b"/>
    <rect id="Rectangle_74" data-name="Rectangle 74" width="57" height="66" transform="translate(72 503.054)" fill="#ff6d4b"/>
    <rect id="Rectangle_75" data-name="Rectangle 75" width="57" height="55" transform="translate(126 514.054)" fill="#ff6d4b"/>
    <rect id="Rectangle_76" data-name="Rectangle 76" width="57" height="55" transform="translate(178 514.054)" fill="#ff6d4b"/>
    <rect id="Rectangle_77" data-name="Rectangle 77" width="153" height="68" transform="translate(232 501.054)" fill="#ff6d4b"/>
    <rect id="Rectangle_78" data-name="Rectangle 78" width="313" height="64" transform="translate(72 442.054)" fill="#ff6d4b"/>
    <rect id="Rectangle_79" data-name="Rectangle 79" width="81" height="66" transform="translate(304 332.054)" fill="#ff6d4b"/>
    <rect id="Rectangle_80" data-name="Rectangle 80" width="65" height="58" transform="translate(322 567.054)" fill="#ff6d4b"/>
    <rect id="Rectangle_81" data-name="Rectangle 81" width="4" height="9" rx="1" transform="translate(317.5 581.554) rotate(-90)" fill="#ff6d4b"/>
    <rect id="Rectangle_82" data-name="Rectangle 82" width="4" height="9" rx="1" transform="translate(318.5 578.554) rotate(-90)" fill="#ff6d4b"/>
    <rect id="Rectangle_83" data-name="Rectangle 83" width="4" height="9" rx="1" transform="translate(317.5 581.554) rotate(-90)" fill="#ff6d4b"/>
    <rect id="Rectangle_84" data-name="Rectangle 84" width="4" height="9" rx="1" transform="translate(317.5 581.554) rotate(-90)" fill="#ff6d4b"/>
    <rect id="Rectangle_85" data-name="Rectangle 85" width="4" height="9" rx="1" transform="translate(318.5 571.554) rotate(-90)" fill="#ff6d4b"/>
    <rect id="Rectangle_86" data-name="Rectangle 86" width="4" height="9" rx="1" transform="translate(317.5 581.554) rotate(-90)" fill="#ff6d4b"/>
    <rect id="Rectangle_87" data-name="Rectangle 87" width="4" height="9" rx="1" transform="translate(319.5 574.554) rotate(-90)" fill="#ff6d4b"/>
    <rect id="Rectangle_88" data-name="Rectangle 88" width="55" height="32" transform="translate(68 567.054)" fill="#ff6d4b"/>
    <rect id="Rectangle_89" data-name="Rectangle 89" width="42" height="16" rx="2" transform="translate(86 567.054)" fill="#ff6d4b"/>
    <rect id="Rectangle_90" data-name="Rectangle 90" width="48" height="41" rx="5" transform="translate(103 375.054)" fill="#ff6d4b"/>
    <rect id="Rectangle_91" data-name="Rectangle 91" width="87" height="34" transform="translate(183 284.054)" fill="#ff6d4b"/>
    <g id="Component_4_14" data-name="Component 4 – 14" transform="translate(69.5 278)" style="isolation: isolate">
      <line id="Line_20" data-name="Line 20" x2="187.409" transform="translate(59.63 170.479)" fill="none" stroke="#ff6d4b" stroke-linecap="round" stroke-width="10"/>
      <line id="Line_21" data-name="Line 21" x2="187.409" transform="translate(59.63 232.949)" fill="none" stroke="#ff6d4b" stroke-linecap="round" stroke-width="10"/>
      <line id="Line_22" data-name="Line 22" x2="187.409" transform="translate(59.63 295.419)" fill="none" stroke="#ff6d4b" stroke-linecap="round" stroke-width="10"/>
      <line id="Line_23" data-name="Line 23" x2="147" transform="translate(84 96.107)" fill="none" stroke="#f5f5f5" stroke-linecap="round" stroke-width="10"/>
      <line id="Line_24" data-name="Line 24" y1="65" transform="translate(231 31.107)" fill="none" stroke="#f5f5f5" stroke-linecap="round" stroke-width="10"/>
      <path id="Path_81" data-name="Path 81" d="M0,65V0" transform="translate(84 31.107)" fill="none" stroke="#f5f5f5" stroke-linecap="round" stroke-width="10"/>
      <path id="Path_89" data-name="Path 89" d="M0,0H31" transform="translate(84 31.107)" fill="none" stroke="#f5f5f5" stroke-linecap="round" stroke-width="10"/>
      <line id="Line_27" data-name="Line 27" x2="32" transform="translate(199 31.107)" fill="none" stroke="#f5f5f5" stroke-linecap="round" stroke-width="10"/>
      <line id="Line_28" data-name="Line 28" y2="19" transform="translate(199 12.107)" fill="none" stroke="#f5f5f5" stroke-linecap="round" stroke-width="10"/>
      <line id="Line_29" data-name="Line 29" y2="12" transform="translate(199 0.107)" fill="none" stroke="#f5f5f5" stroke-linecap="round" stroke-width="10"/>
      <path id="Path_88" data-name="Path 88" d="M0,0V19" transform="translate(115 12.107)" fill="none" stroke="#f5f5f5" stroke-linecap="round" stroke-width="10"/>
      <line id="Line_31" data-name="Line 31" y2="12" transform="translate(115 0.107)" fill="none" stroke="#f5f5f5" stroke-linecap="round" stroke-width="10"/>
      <path id="Path_80" data-name="Path 80" d="M85.357.1,1.508-.107" transform="translate(113.581 0.107)" fill="none" stroke="#f5f5f5" stroke-linecap="round" stroke-width="10"/>
      <path id="Path_82" data-name="Path 82" d="M0,0H71.04" transform="translate(1 53.719)" fill="none" stroke="#ff6d4b" stroke-linecap="round" stroke-width="10"/>
      <line id="Line_35" data-name="Line 35" y2="315" transform="translate(319 54.107)" fill="none" stroke="#ff6d4b" stroke-linecap="round" stroke-width="10"/>
      <line id="Line_36" data-name="Line 36" x2="319" transform="translate(0 369.107)" fill="none" stroke="#ff6d4b" stroke-linecap="round" stroke-width="10"/>
      <line id="Line_37" data-name="Line 37" y2="315" transform="translate(0 54.107)" fill="none" stroke="#ff6d4b" stroke-linecap="round" stroke-width="10"/>
      <line id="Line_515" data-name="Line 515" x2="187.409" transform="translate(59.63 295.419)" fill="none" stroke="#f5f5f5" stroke-linecap="round" stroke-width="10"/>
      <line id="Line_516" data-name="Line 516" x2="187.409" transform="translate(59.63 232.949)" fill="none" stroke="#f5f5f5" stroke-linecap="round" stroke-width="10"/>
      <line id="Line_517" data-name="Line 517" x2="187.409" transform="translate(59.63 170.479)" fill="none" stroke="#f5f5f5" stroke-linecap="round" stroke-width="10"/>
      <path id="Path_85" data-name="Path 85" d="M0,0H71.04" transform="translate(247.959 54.107)" fill="none" stroke="#ff6d4b" stroke-linecap="round" stroke-width="10"/>
      <path id="Path_86" data-name="Path 86" d="M0,0H13.211" transform="translate(236 54.107)" fill="none" stroke="#ff6d4b" stroke-width="10"/>
      <path id="Path_87" data-name="Path 87" d="M0,0H14.061" transform="translate(64.914 53.719)" fill="none" stroke="#ff6d4b" stroke-width="10"/>
    </g>
    <rect id="Rectangle_92" data-name="Rectangle 92" width="138" height="57" transform="translate(158 313.054)" fill="#ff6d4b"/>
    <path id="Path_91" data-name="Path 91" d="M4.054,0H69.938a4.027,4.027,0,0,1,4.054,4V20a4.027,4.027,0,0,1-4.054,4H4.054A4.027,4.027,0,0,1,0,20V4A4.027,4.027,0,0,1,4.054,0Z" transform="translate(189.546 280.054)" fill="#ff6d4b"/>
  </g>
</svg>
