<svg xmlns="http://www.w3.org/2000/svg" width="321.522" height="224.759" viewBox="0 0 321.522 224.759">
  <g id="Componente_2_2" data-name="Componente 2 – 2" transform="translate(0.51 0.511)">
    <g id="Componente_2_2-2" data-name="Componente 2 – 2" transform="translate(0 0.002)" style="isolation: isolate">
      <path id="Path_100" data-name="Path 100" d="M190,114h0Z" transform="translate(62.25 21.849)" fill="#a444f8"/>
      <path id="Tracciato_27" data-name="Tracciato 27" d="M526.027,513.111c104.96-180.047,234.106.272,234.106.272" transform="translate(-482.433 -292.363)" fill="rgba(0,0,0,0)" stroke="#f5f5f5" stroke-width="1"/>
      <path id="Tracciato_28" data-name="Tracciato 28" d="M584.631,407c-100.02,70.115-60.443,190.3-60.443,190.3" transform="translate(-516.464 -392.02)" fill="rgba(0,0,0,0)" stroke="#f5f5f5" stroke-width="1"/>
      <path id="Tracciato_29" data-name="Tracciato 29" d="M518.091,446.894c7.442,14.314,8.121,13.947,13.739,16.968,5.656,3.3,14.927,1.805,21.549,0,.471-.721.641-1.051.641-1.051" transform="translate(-510.423 -242.115)" fill="rgba(0,0,0,0)" stroke="#f5f5f5" stroke-width="1"/>
      <path id="Tracciato_30" data-name="Tracciato 30" d="M516.464,407c100.021,69.813,60.443,189.474,60.443,189.474" transform="translate(-264.131 -392.02)" fill="rgba(0,0,0,0)" stroke="#f5f5f5" stroke-width="1"/>
      <path id="Tracciato_31" data-name="Tracciato 31" d="M554.02,446.894c-7.442,14.314-8.121,13.947-13.739,16.968-5.656,3.3-14.927,1.805-21.549,0-.471-.721-.641-1.051-.641-1.051" transform="translate(-241.187 -242.94)" fill="rgba(0,0,0,0)" stroke="#f5f5f5" stroke-width="1"/>
      <path id="Tracciato_32" data-name="Tracciato 32" d="M530.328,420.646a27.311,27.311,0,0,1,4.03-2.5c71.486-26.394,146.583-9.818,175.951-1.414a70.258,70.258,0,0,1,7.937,2.555" transform="translate(-464.984 -403.823)" fill="rgba(0,0,0,0)" stroke="#f5f5f5" stroke-width="1"/>
      <g id="Ellisse_19" data-name="Ellisse 19" transform="translate(212.643 59.652)" stroke="#f5f5f5" stroke-width="1">
        <circle cx="11.783" cy="11.783" r="11.783" stroke="none"/>
        <circle cx="11.783" cy="11.783" r="11.283" fill="none"/>
      </g>
      <g id="Ellisse_20" data-name="Ellisse 20" transform="translate(193.63 78.675)" stroke="#f5f5f5" stroke-width="1">
        <circle cx="11.783" cy="11.783" r="11.783" stroke="none"/>
        <circle cx="11.783" cy="11.783" r="11.283" fill="none"/>
      </g>
      <g id="Ellisse_21" data-name="Ellisse 21" transform="translate(231.656 78.675)" stroke="#f5f5f5" stroke-width="1">
        <circle cx="11.783" cy="11.783" r="11.783" stroke="none"/>
        <circle cx="11.783" cy="11.783" r="11.283" fill="none"/>
      </g>
      <g id="Ellisse_22" data-name="Ellisse 22" transform="translate(212.643 97.693)" stroke="#f5f5f5" stroke-width="1">
        <circle cx="11.783" cy="11.783" r="11.783" stroke="none"/>
        <circle cx="11.783" cy="11.783" r="11.283" fill="none"/>
      </g>
      <path id="Tracciato_33" data-name="Tracciato 33" d="M760.133,513.383" transform="translate(-482.433 -292.363)" fill="rgba(0,0,0,0)" stroke="#f5f5f5" stroke-width="1"/>
      <path id="Tracciato_34" data-name="Tracciato 34" d="M584.631,407c-100.02,70.115-60.443,190.3-60.443,190.3" transform="translate(-516.464 -392.02)" fill="rgba(0,0,0,0)" stroke="#f5f5f5" stroke-width="1"/>
      <path id="Tracciato_35" data-name="Tracciato 35" d="M516.464,407c100.021,69.813,60.443,189.474,60.443,189.474" transform="translate(-264.131 -392.02)" fill="rgba(0,0,0,0)" stroke="#f5f5f5" stroke-width="1"/>
      <path id="Tracciato_36" data-name="Tracciato 36" d="M554.02,446.894c-7.442,14.314-8.121,13.947-13.739,16.968-5.656,3.3-14.927,1.805-21.549,0-.471-.721-.641-1.051-.641-1.051" transform="translate(-241.187 -242.94)" fill="rgba(0,0,0,0)" stroke="#f5f5f5" stroke-width="1"/>
      <path id="Tracciato_37" data-name="Tracciato 37" d="M530.328,420.646a27.311,27.311,0,0,1,4.03-2.5c71.486-26.394,146.583-9.818,175.951-1.414a70.258,70.258,0,0,1,7.937,2.555" transform="translate(-464.984 -403.823)" fill="rgba(0,0,0,0)" stroke="#f5f5f5" stroke-width="1"/>
      <g id="Ellisse_23" data-name="Ellisse 23" transform="translate(212.643 59.652)" stroke="#f5f5f5" stroke-width="1">
        <circle cx="11.783" cy="11.783" r="11.783" stroke="none"/>
        <circle cx="11.783" cy="11.783" r="11.283" fill="none"/>
      </g>
      <g id="Ellisse_24" data-name="Ellisse 24" transform="translate(193.63 78.675)" stroke="#f5f5f5" stroke-width="1">
        <circle cx="11.783" cy="11.783" r="11.783" stroke="none"/>
        <circle cx="11.783" cy="11.783" r="11.283" fill="none"/>
      </g>
      <g id="Ellisse_25" data-name="Ellisse 25" transform="translate(231.656 78.675)" stroke="#f5f5f5" stroke-width="1">
        <circle cx="11.783" cy="11.783" r="11.783" stroke="none"/>
        <circle cx="11.783" cy="11.783" r="11.283" fill="none"/>
      </g>
      <g id="Ellisse_26" data-name="Ellisse 26" transform="translate(212.643 97.693)" stroke="#f5f5f5" stroke-width="1">
        <circle cx="11.783" cy="11.783" r="11.783" stroke="none"/>
        <circle cx="11.783" cy="11.783" r="11.283" fill="none"/>
      </g>
      <path id="Tracciato_39" data-name="Tracciato 39" d="M584.631,407c-100.02,70.115-60.443,190.3-60.443,190.3" transform="translate(-516.464 -392.02)" fill="none" opacity="0.1"/>
      <path id="Tracciato_40" data-name="Tracciato 40" d="M516.464,407c100.021,69.813,60.443,189.474,60.443,189.474" transform="translate(-264.131 -392.02)" fill="rgba(0,0,0,0)" stroke="#f5f5f5" stroke-width="1"/>
      <path id="Tracciato_41" data-name="Tracciato 41" d="M554.02,446.894c-7.442,14.314-8.121,13.947-13.739,16.968-5.656,3.3-14.927,1.805-21.549,0-.471-.721-.641-1.051-.641-1.051" transform="translate(-241.187 -242.94)" fill="rgba(0,0,0,0)" stroke="#f5f5f5" stroke-width="1"/>
      <path id="Tracciato_42" data-name="Tracciato 42" d="M530.328,420.646a27.311,27.311,0,0,1,4.03-2.5c71.486-26.394,146.583-9.818,175.951-1.414a70.258,70.258,0,0,1,7.937,2.555" transform="translate(-464.984 -403.823)" fill="rgba(0,0,0,0)" stroke="#f5f5f5" stroke-width="1"/>
      <g id="Ellisse_27" data-name="Ellisse 27" transform="translate(212.643 59.652)" fill="#f5f5f5">
        <path d="M 11.78317642211914 23.06635665893555 C 8.769326210021973 23.06635665893555 5.935876369476318 21.89269638061523 3.804766416549683 19.76158714294434 C 1.673656463623047 17.6304759979248 0.4999964237213135 14.79702663421631 0.4999964237213135 11.78317642211914 C 0.4999964237213135 8.769326210021973 1.673656463623047 5.935876369476318 3.804766416549683 3.804766416549683 C 5.935876369476318 1.673656463623047 8.769326210021973 0.4999964237213135 11.78317642211914 0.4999964237213135 C 14.79702663421631 0.4999964237213135 17.6304759979248 1.673656463623047 19.76158714294434 3.804766416549683 C 21.89269638061523 5.935876369476318 23.06635665893555 8.769326210021973 23.06635665893555 11.78317642211914 C 23.06635665893555 14.79702663421631 21.89269638061523 17.6304759979248 19.76158714294434 19.76158714294434 C 17.6304759979248 21.89269638061523 14.79702663421631 23.06635665893555 11.78317642211914 23.06635665893555 Z" stroke="none"/>
        <path d="M 11.78317642211914 0.9999961853027344 C 8.902886390686035 0.9999961853027344 6.194986343383789 2.121646881103516 4.158315658569336 4.158315658569336 C 2.121646881103516 6.194986343383789 0.9999961853027344 8.902886390686035 0.9999961853027344 11.78317642211914 C 0.9999961853027344 14.66346645355225 2.121646881103516 17.37136650085449 4.158315658569336 19.40803527832031 C 6.194986343383789 21.44470596313477 8.902886390686035 22.56635665893555 11.78317642211914 22.56635665893555 C 14.66346645355225 22.56635665893555 17.37136650085449 21.44470596313477 19.40803527832031 19.40803527832031 C 21.44470596313477 17.37136650085449 22.56635665893555 14.66346645355225 22.56635665893555 11.78317642211914 C 22.56635665893555 8.902886390686035 21.44470596313477 6.194986343383789 19.40803527832031 4.158315658569336 C 17.37136650085449 2.121646881103516 14.66346645355225 0.9999961853027344 11.78317642211914 0.9999961853027344 M 11.78317642211914 -3.814697265625e-06 C 18.29084587097168 -3.814697265625e-06 23.56635665893555 5.275506973266602 23.56635665893555 11.78317642211914 C 23.56635665893555 18.29084587097168 18.29084587097168 23.56635665893555 11.78317642211914 23.56635665893555 C 5.275506973266602 23.56635665893555 -3.814697265625e-06 18.29084587097168 -3.814697265625e-06 11.78317642211914 C -3.814697265625e-06 5.275506973266602 5.275506973266602 -3.814697265625e-06 11.78317642211914 -3.814697265625e-06 Z" stroke="none" fill="#f5f5f5"/>
      </g>
      <g id="Ellisse_28" data-name="Ellisse 28" transform="translate(193.63 78.675)" fill="#f5f5f5" stroke="#f5f5f5" stroke-width="1">
        <circle cx="11.783" cy="11.783" r="11.783" stroke="none"/>
        <circle cx="11.783" cy="11.783" r="11.283" fill="none"/>
      </g>
      <g id="Ellisse_29" data-name="Ellisse 29" transform="translate(231.656 78.675)" fill="#f5f5f5">
        <path d="M 11.78317642211914 23.06635665893555 C 8.769326210021973 23.06635665893555 5.935876369476318 21.89269638061523 3.804766416549683 19.76158714294434 C 1.673656463623047 17.6304759979248 0.4999964237213135 14.79702663421631 0.4999964237213135 11.78317642211914 C 0.4999964237213135 8.769326210021973 1.673656463623047 5.935876369476318 3.804766416549683 3.804766416549683 C 5.935876369476318 1.673656463623047 8.769326210021973 0.4999964237213135 11.78317642211914 0.4999964237213135 C 14.79702663421631 0.4999964237213135 17.6304759979248 1.673656463623047 19.76158714294434 3.804766416549683 C 21.89269638061523 5.935876369476318 23.06635665893555 8.769326210021973 23.06635665893555 11.78317642211914 C 23.06635665893555 14.79702663421631 21.89269638061523 17.6304759979248 19.76158714294434 19.76158714294434 C 17.6304759979248 21.89269638061523 14.79702663421631 23.06635665893555 11.78317642211914 23.06635665893555 Z" stroke="none"/>
        <path d="M 11.78317642211914 0.9999961853027344 C 8.902886390686035 0.9999961853027344 6.194986343383789 2.121646881103516 4.158315658569336 4.158315658569336 C 2.121646881103516 6.194986343383789 0.9999961853027344 8.902886390686035 0.9999961853027344 11.78317642211914 C 0.9999961853027344 14.66346645355225 2.121646881103516 17.37136650085449 4.158315658569336 19.40803527832031 C 6.194986343383789 21.44470596313477 8.902886390686035 22.56635665893555 11.78317642211914 22.56635665893555 C 14.66346645355225 22.56635665893555 17.37136650085449 21.44470596313477 19.40803527832031 19.40803527832031 C 21.44470596313477 17.37136650085449 22.56635665893555 14.66346645355225 22.56635665893555 11.78317642211914 C 22.56635665893555 8.902886390686035 21.44470596313477 6.194986343383789 19.40803527832031 4.158315658569336 C 17.37136650085449 2.121646881103516 14.66346645355225 0.9999961853027344 11.78317642211914 0.9999961853027344 M 11.78317642211914 -3.814697265625e-06 C 18.29084587097168 -3.814697265625e-06 23.56635665893555 5.275506973266602 23.56635665893555 11.78317642211914 C 23.56635665893555 18.29084587097168 18.29084587097168 23.56635665893555 11.78317642211914 23.56635665893555 C 5.275506973266602 23.56635665893555 -3.814697265625e-06 18.29084587097168 -3.814697265625e-06 11.78317642211914 C -3.814697265625e-06 5.275506973266602 5.275506973266602 -3.814697265625e-06 11.78317642211914 -3.814697265625e-06 Z" stroke="none" fill="#f5f5f5"/>
      </g>
      <g id="Ellisse_30" data-name="Ellisse 30" transform="translate(212.643 97.693)" fill="#f5f5f5" stroke="#f5f5f5" stroke-width="1">
        <circle cx="11.783" cy="11.783" r="11.783" stroke="none"/>
        <circle cx="11.783" cy="11.783" r="11.283" fill="none"/>
      </g>
      <path id="Linea_257" data-name="Linea 257" d="M0,0" transform="translate(119.867 81.037)" fill="rgba(0,0,0,0)" stroke="#f5f5f5" stroke-width="1"/>
      <path id="Path_97" data-name="Path 97" d="M0,0H56.4V19H0Z" transform="translate(67.847 80.849)" fill="#f5f5f5"/>
      <rect id="Rectangle_94" data-name="Rectangle 94" width="61.715" height="19" transform="translate(105.648 62.019) rotate(90)" fill="none"/>
      <path id="Path_101" data-name="Path 101" d="M0,0H61.39V19H0Z" transform="translate(105.114 62.183) rotate(90)" fill="#f5f5f5"/>
    </g>
  </g>
</svg>
