<svg id="Tavola_disegno_1" data-name="Tavola disegno 1" xmlns="http://www.w3.org/2000/svg" width="170.509" height="72.174" viewBox="0 0 170.509 72.174">
  <path id="Tracciato_1" data-name="Tracciato 1" d="M78.251,70.765c-28.275,0-56.549-.053-84.832.089a.445.445,0,0,1-.32-.136.458.458,0,0,1-.128-.327q.237-35.856,0-71.711,85.254.125,170.508,0h0q-.158,36.078,0,72.157C135.046,70.73,106.622,70.765,78.251,70.765Z" transform="translate(7.03 1.32)" fill="rgba(0,0,0,0)"/>
  <path id="Tracciato_2" data-name="Tracciato 2" d="M.11,63.195a44.877,44.877,0,0,0,30.629-2.83c1.014-.473,3.077-.553,2.6-2.339-.414-1.589-1.94-.5-3.015-.518-2.645-.054-4.064-2.776-2.874-5.927a5.072,5.072,0,0,1,2.063-2.731c4.9-2.2,7.476-6.391,9.7-10.943a3.356,3.356,0,0,1,3.174-2.026c1.543.08,1.472,1.526,1.719,2.678.291,1.348.749,2.776,2.513,2.339,1.516-.366,1.843-1.714,1.843-3.16,0-3.41-.1-6.829.062-10.238a7.329,7.329,0,0,1,4.355-6.248,4.6,4.6,0,0,1,5.29.893c1.763,1.491,1.984,3.508,1.763,5.65-.123,1.276.194,2.589,1.437,2.928,1.561.437,2.354-.893,2.909-2.133,1.49-3.312.882-7,1.71-10.461C67.372,12.5,70.4,8.54,75.942,6.8c4.232-1.312,6.948.83,6.948,5.293a11.446,11.446,0,0,0-.115,1.3c.256,1.857-1.834,4.668,1.067,5.356,2.46.58,4.1-1.785,5.211-3.963A66.843,66.843,0,0,1,95.471,3.711,9.181,9.181,0,0,1,102.233.1c4.823-.446,7.662,3.276,6.172,7.962-.785,2.446-3.359,5.606-1.049,7.293,2.7,1.982,4.69-1.91,6.877-3.365,4.1-2.722,8.332-4.41,13.172-2.517,3.059,1.187,4.787,3.044,1.913,6.248-.882.955-2.028,2.089-1.34,3.5.829,1.7,2.645.964,3.976.955,5.017,0,9.7.518,12.343,5.668,2.31,4.463,1.613,7.141-2.645,9.658a32.171,32.171,0,0,1-3.139,1.562c-5.74,2.606-5.74,2.6-3.3,8.239,1.931,4.463.238,7.587-4.805,8.739-4.717,1.071-8.984-.134-12.934-2.785a17.042,17.042,0,0,0-7.626-3.151c-1.34-.143-2.918.116-3.615,1.178-.935,1.428.688,2.285,1.5,3.231.388.455.829.893,1.208,1.3,1.6,1.866,3.862,3.57,2.442,6.507-1.5,3.115-4.355,3.231-7.2,2.856-5.7-.759-10.377-3.722-14.768-7.248-2.063-1.651-4.153-3.276-6.313-4.784a2.622,2.622,0,0,0-3.615.187c-1.226,1.241-.485,2.348.168,3.57,2.821,5.311,1.173,7.989-4.779,8.221-4.17.161-7.159-2.16-10.315-4.329-1.349-.919-2.909-2.553-4.593-1.5s-.079,2.678,0,4.088c.256,3.57-1.922,4.356-4.461,3.285a16.677,16.677,0,0,0-13.586-.152c-3.324,1.366-5.052-1.027-6.048-4.026-9.61,6.7-20.058,8.435-31.176,7C2.5,67.2.233,66.837.11,63.195Z" transform="translate(6.054 1.131)" fill="rgba(0,191,89,0)" stroke="#000" stroke-width="1.5"/>
  <path id="Tracciato_3" data-name="Tracciato 3" d="M63.3,51.053c-3.841.44-6.638,4.005-10.73,3.66,20.605-12.949,42.912-20.1,67.894-19.854-1.727,2.1-3.686,1.39-5.343,1.493-17.981,1.079-35.073,5.361-51.009,13.915a4.541,4.541,0,0,0-.863.863Z" transform="translate(0.45 -2.233)"/>
  <path id="Tracciato_4" data-name="Tracciato 4" d="M86.52,47.894c6.751-2.365,18,1.839,21.451,8.037C101.463,51.554,94.962,47.16,86.52,47.894Z" transform="translate(-4.083 -3.79)"/>
  <path id="Tracciato_5" data-name="Tracciato 5" d="M110.441,14.19c1.114,5.179-4.627,14.779-9.841,16.583C105.184,26.008,107.989,20.2,110.441,14.19Z" transform="translate(-5.896 -0.24)"/>
  <path id="Tracciato_6" data-name="Tracciato 6" d="M85.866,22.344A25.345,25.345,0,0,1,80.35,37.735,69.267,69.267,0,0,0,84.925,20.79C85.823,20.971,85.46,21.886,85.866,22.344Z" transform="translate(-3.504 -0.899)"/>
  <path id="Tracciato_7" data-name="Tracciato 7" d="M61.838,33c3.03,4.083,2.244,10.273-1.968,13.889C61.933,41.986,63.357,37.67,61.838,33Z" transform="translate(-1.047 -2.192)"/>
  <path id="Tracciato_8" data-name="Tracciato 8" d="M64.9,53.672c4.316.924,8.719,1.83,11.913,5.361-3.651-2.495-8.667-1.916-11.826-5.412Z" transform="translate(-1.594 -4.551)"/>
  <path id="Tracciato_9" data-name="Tracciato 9" d="M86.568,22.12l-.923-1.556c0-.6-.237-1.78.61-1.348S86.584,21.108,86.568,22.12Z" transform="translate(-4.215 -0.468)"/>
</svg>
